# xmcd
# Track frame offsets:
# 150
# 13748
# 29354
# 50793
# 66983
# 87096
# 100939
# 123365
# 145364
# 176352
#
# Disc length: 2629 seconds
# Revision: 0
# Processed by: cddbd v1.5.1PL0 Copyright (c) Steve Scherf et al.
# Submitted via: VisiTrax 2.9.9.209 - For more info visit www.synapsa.com
#
DISCID=880a430a
DTITLE=Stevie Wonder - Talking Book
DYEAR=1972
DGENRE=R&B
TTITLE0=You Are The Sunshine Of My Life
TTITLE1=Maybe Your Baby
TTITLE2=You And I
TTITLE3=Tuesday Heartbreak
TTITLE4=You've Got It Bad Girl
TTITLE5=Superstition
TTITLE6=Big Brother
TTITLE7=Blame It On The Sun
TTITLE8=Looking For Another Pure Love
TTITLE9=I Believe (When I Fall In Love It Will Be Forever)
EXTD=
EXTT0=
EXTT1=
EXTT2=
EXTT3=
EXTT4=
EXTT5=
EXTT6=
EXTT7=
EXTT8=
EXTT9=
PLAYORDER=
